# xmcd
#
# Track frame offsets:
#	150
#	19880
#	45202
#	58175
#	78957
#	93527
#	103505
#	117727
#	135160
#	152645
#	165362
#	181700
#	196870
#	209235
#	227635
#	240817
#
# Disc length: 3399 seconds
#
# Revision: 0
# Processed by: cddbd v1.5.1PL0 Copyright (c) Steve Scherf et al.
# Submitted via: dBpowerAMP V4.0
#
DISCID=c10d4510
DTITLE=Marsyas - Kousek prizne
DYEAR=1981
DGENRE=Folk-Rock
TTITLE0=Na posledni chvili
TTITLE1=Blues navecer
TTITLE2=Zlato a stribro
TTITLE3=Studena koupel (From the Beginning)
TTITLE4=Od pondeli
TTITLE5=Tajemstvi
TTITLE6=Znameni byka
TTITLE7=Podivam se zblizka
TTITLE8=Vyletni hnizdo
TTITLE9=Za mestem
TTITLE10=Slunce a dest (Fire and Rain)
TTITLE11=(bonus) Znameni byka
TTITLE12=(bonus) Tajemstvi
TTITLE13=(bonus) Od pondeli
TTITLE14=(bonus) Za mestem
TTITLE15=(bonus) Tyden
EXTD=12-16 recorded in Studio A, begining '81\n1-11 recorded in Mozarteum, june '81\ncompilation '95 Bonton\nauthors' note: The first cut is the deepest.
EXTT0=
EXTT1=
EXTT2=
EXTT3=
EXTT4=
EXTT5=
EXTT6=
EXTT7=
EXTT8=
EXTT9=
EXTT10=
EXTT11=
EXTT12=
EXTT13=
EXTT14=
EXTT15=
PLAYORDER=
